<svg version="1.1" width="1000" height="1000" xmlns="http://www.w3.org/2000/svg">
	<g stroke="red" stroke-width="1">
		<line x1="950.00" x2="911.10" y1="500.00" y2="683.03" />
		<line x1="950.00" x2="801.11" y1="500.00" y2="834.42" />
		<line x1="950.00" x2="639.06" y1="500.00" y2="927.98" />
		<line x1="950.00" x2="452.96" y1="500.00" y2="947.53" />
		<line x1="950.00" x2="275.00" y1="500.00" y2="889.71" />
		<line x1="950.00" x2="135.94" y1="500.00" y2="764.50" />
		<line x1="950.00" x2="59.83" y1="500.00" y2="593.56" />
		<line x1="950.00" x2="59.83" y1="500.00" y2="406.44" />
		<line x1="950.00" x2="135.94" y1="500.00" y2="235.50" />
		<line x1="950.00" x2="275.00" y1="500.00" y2="110.29" />
		<line x1="950.00" x2="452.96" y1="500.00" y2="52.47" />
		<line x1="950.00" x2="639.06" y1="500.00" y2="72.02" />
		<line x1="950.00" x2="801.11" y1="500.00" y2="165.58" />
		<line x1="950.00" x2="911.10" y1="500.00" y2="316.97" />
		<line x1="911.10" x2="950.00" y1="683.03" y2="500.00" />
		<line x1="911.10" x2="801.11" y1="683.03" y2="834.42" />
		<line x1="911.10" x2="639.06" y1="683.03" y2="927.98" />
		<line x1="911.10" x2="452.96" y1="683.03" y2="947.53" />
		<line x1="911.10" x2="275.00" y1="683.03" y2="889.71" />
		<line x1="911.10" x2="135.94" y1="683.03" y2="764.50" />
		<line x1="911.10" x2="59.83" y1="683.03" y2="593.56" />
		<line x1="911.10" x2="59.83" y1="683.03" y2="406.44" />
		<line x1="911.10" x2="135.94" y1="683.03" y2="235.50" />
		<line x1="911.10" x2="275.00" y1="683.03" y2="110.29" />
		<line x1="911.10" x2="452.96" y1="683.03" y2="52.47" />
		<line x1="911.10" x2="639.06" y1="683.03" y2="72.02" />
		<line x1="911.10" x2="801.11" y1="683.03" y2="165.58" />
		<line x1="911.10" x2="911.10" y1="683.03" y2="316.97" />
		<line x1="801.11" x2="950.00" y1="834.42" y2="500.00" />
		<line x1="801.11" x2="911.10" y1="834.42" y2="683.03" />
		<line x1="801.11" x2="639.06" y1="834.42" y2="927.98" />
		<line x1="801.11" x2="452.96" y1="834.42" y2="947.53" />
		<line x1="801.11" x2="275.00" y1="834.42" y2="889.71" />
		<line x1="801.11" x2="135.94" y1="834.42" y2="764.50" />
		<line x1="801.11" x2="59.83" y1="834.42" y2="593.56" />
		<line x1="801.11" x2="59.83" y1="834.42" y2="406.44" />
		<line x1="801.11" x2="135.94" y1="834.42" y2="235.50" />
		<line x1="801.11" x2="275.00" y1="834.42" y2="110.29" />
		<line x1="801.11" x2="452.96" y1="834.42" y2="52.47" />
		<line x1="801.11" x2="639.06" y1="834.42" y2="72.02" />
		<line x1="801.11" x2="801.11" y1="834.42" y2="165.58" />
		<line x1="801.11" x2="911.10" y1="834.42" y2="316.97" />
		<line x1="639.06" x2="950.00" y1="927.98" y2="500.00" />
		<line x1="639.06" x2="911.10" y1="927.98" y2="683.03" />
		<line x1="639.06" x2="801.11" y1="927.98" y2="834.42" />
		<line x1="639.06" x2="452.96" y1="927.98" y2="947.53" />
		<line x1="639.06" x2="275.00" y1="927.98" y2="889.71" />
		<line x1="639.06" x2="135.94" y1="927.98" y2="764.50" />
		<line x1="639.06" x2="59.83" y1="927.98" y2="593.56" />
		<line x1="639.06" x2="59.83" y1="927.98" y2="406.44" />
		<line x1="639.06" x2="135.94" y1="927.98" y2="235.50" />
		<line x1="639.06" x2="275.00" y1="927.98" y2="110.29" />
		<line x1="639.06" x2="452.96" y1="927.98" y2="52.47" />
		<line x1="639.06" x2="639.06" y1="927.98" y2="72.02" />
		<line x1="639.06" x2="801.11" y1="927.98" y2="165.58" />
		<line x1="639.06" x2="911.10" y1="927.98" y2="316.97" />
		<line x1="452.96" x2="950.00" y1="947.53" y2="500.00" />
		<line x1="452.96" x2="911.10" y1="947.53" y2="683.03" />
		<line x1="452.96" x2="801.11" y1="947.53" y2="834.42" />
		<line x1="452.96" x2="639.06" y1="947.53" y2="927.98" />
		<line x1="452.96" x2="275.00" y1="947.53" y2="889.71" />
		<line x1="452.96" x2="135.94" y1="947.53" y2="764.50" />
		<line x1="452.96" x2="59.83" y1="947.53" y2="593.56" />
		<line x1="452.96" x2="59.83" y1="947.53" y2="406.44" />
		<line x1="452.96" x2="135.94" y1="947.53" y2="235.50" />
		<line x1="452.96" x2="275.00" y1="947.53" y2="110.29" />
		<line x1="452.96" x2="452.96" y1="947.53" y2="52.47" />
		<line x1="452.96" x2="639.06" y1="947.53" y2="72.02" />
		<line x1="452.96" x2="801.11" y1="947.53" y2="165.58" />
		<line x1="452.96" x2="911.10" y1="947.53" y2="316.97" />
		<line x1="275.00" x2="950.00" y1="889.71" y2="500.00" />
		<line x1="275.00" x2="911.10" y1="889.71" y2="683.03" />
		<line x1="275.00" x2="801.11" y1="889.71" y2="834.42" />
		<line x1="275.00" x2="639.06" y1="889.71" y2="927.98" />
		<line x1="275.00" x2="452.96" y1="889.71" y2="947.53" />
		<line x1="275.00" x2="135.94" y1="889.71" y2="764.50" />
		<line x1="275.00" x2="59.83" y1="889.71" y2="593.56" />
		<line x1="275.00" x2="59.83" y1="889.71" y2="406.44" />
		<line x1="275.00" x2="135.94" y1="889.71" y2="235.50" />
		<line x1="275.00" x2="275.00" y1="889.71" y2="110.29" />
		<line x1="275.00" x2="452.96" y1="889.71" y2="52.47" />
		<line x1="275.00" x2="639.06" y1="889.71" y2="72.02" />
		<line x1="275.00" x2="801.11" y1="889.71" y2="165.58" />
		<line x1="275.00" x2="911.10" y1="889.71" y2="316.97" />
		<line x1="135.94" x2="950.00" y1="764.50" y2="500.00" />
		<line x1="135.94" x2="911.10" y1="764.50" y2="683.03" />
		<line x1="135.94" x2="801.11" y1="764.50" y2="834.42" />
		<line x1="135.94" x2="639.06" y1="764.50" y2="927.98" />
		<line x1="135.94" x2="452.96" y1="764.50" y2="947.53" />
		<line x1="135.94" x2="275.00" y1="764.50" y2="889.71" />
		<line x1="135.94" x2="59.83" y1="764.50" y2="593.56" />
		<line x1="135.94" x2="59.83" y1="764.50" y2="406.44" />
		<line x1="135.94" x2="135.94" y1="764.50" y2="235.50" />
		<line x1="135.94" x2="275.00" y1="764.50" y2="110.29" />
		<line x1="135.94" x2="452.96" y1="764.50" y2="52.47" />
		<line x1="135.94" x2="639.06" y1="764.50" y2="72.02" />
		<line x1="135.94" x2="801.11" y1="764.50" y2="165.58" />
		<line x1="135.94" x2="911.10" y1="764.50" y2="316.97" />
		<line x1="59.83" x2="950.00" y1="593.56" y2="500.00" />
		<line x1="59.83" x2="911.10" y1="593.56" y2="683.03" />
		<line x1="59.83" x2="801.11" y1="593.56" y2="834.42" />
		<line x1="59.83" x2="639.06" y1="593.56" y2="927.98" />
		<line x1="59.83" x2="452.96" y1="593.56" y2="947.53" />
		<line x1="59.83" x2="275.00" y1="593.56" y2="889.71" />
		<line x1="59.83" x2="135.94" y1="593.56" y2="764.50" />
		<line x1="59.83" x2="59.83" y1="593.56" y2="406.44" />
		<line x1="59.83" x2="135.94" y1="593.56" y2="235.50" />
		<line x1="59.83" x2="275.00" y1="593.56" y2="110.29" />
		<line x1="59.83" x2="452.96" y1="593.56" y2="52.47" />
		<line x1="59.83" x2="639.06" y1="593.56" y2="72.02" />
		<line x1="59.83" x2="801.11" y1="593.56" y2="165.58" />
		<line x1="59.83" x2="911.10" y1="593.56" y2="316.97" />
		<line x1="59.83" x2="950.00" y1="406.44" y2="500.00" />
		<line x1="59.83" x2="911.10" y1="406.44" y2="683.03" />
		<line x1="59.83" x2="801.11" y1="406.44" y2="834.42" />
		<line x1="59.83" x2="639.06" y1="406.44" y2="927.98" />
		<line x1="59.83" x2="452.96" y1="406.44" y2="947.53" />
		<line x1="59.83" x2="275.00" y1="406.44" y2="889.71" />
		<line x1="59.83" x2="135.94" y1="406.44" y2="764.50" />
		<line x1="59.83" x2="59.83" y1="406.44" y2="593.56" />
		<line x1="59.83" x2="135.94" y1="406.44" y2="235.50" />
		<line x1="59.83" x2="275.00" y1="406.44" y2="110.29" />
		<line x1="59.83" x2="452.96" y1="406.44" y2="52.47" />
		<line x1="59.83" x2="639.06" y1="406.44" y2="72.02" />
		<line x1="59.83" x2="801.11" y1="406.44" y2="165.58" />
		<line x1="59.83" x2="911.10" y1="406.44" y2="316.97" />
		<line x1="135.94" x2="950.00" y1="235.50" y2="500.00" />
		<line x1="135.94" x2="911.10" y1="235.50" y2="683.03" />
		<line x1="135.94" x2="801.11" y1="235.50" y2="834.42" />
		<line x1="135.94" x2="639.06" y1="235.50" y2="927.98" />
		<line x1="135.94" x2="452.96" y1="235.50" y2="947.53" />
		<line x1="135.94" x2="275.00" y1="235.50" y2="889.71" />
		<line x1="135.94" x2="135.94" y1="235.50" y2="764.50" />
		<line x1="135.94" x2="59.83" y1="235.50" y2="593.56" />
		<line x1="135.94" x2="59.83" y1="235.50" y2="406.44" />
		<line x1="135.94" x2="275.00" y1="235.50" y2="110.29" />
		<line x1="135.94" x2="452.96" y1="235.50" y2="52.47" />
		<line x1="135.94" x2="639.06" y1="235.50" y2="72.02" />
		<line x1="135.94" x2="801.11" y1="235.50" y2="165.58" />
		<line x1="135.94" x2="911.10" y1="235.50" y2="316.97" />
		<line x1="275.00" x2="950.00" y1="110.29" y2="500.00" />
		<line x1="275.00" x2="911.10" y1="110.29" y2="683.03" />
		<line x1="275.00" x2="801.11" y1="110.29" y2="834.42" />
		<line x1="275.00" x2="639.06" y1="110.29" y2="927.98" />
		<line x1="275.00" x2="452.96" y1="110.29" y2="947.53" />
		<line x1="275.00" x2="275.00" y1="110.29" y2="889.71" />
		<line x1="275.00" x2="135.94" y1="110.29" y2="764.50" />
		<line x1="275.00" x2="59.83" y1="110.29" y2="593.56" />
		<line x1="275.00" x2="59.83" y1="110.29" y2="406.44" />
		<line x1="275.00" x2="135.94" y1="110.29" y2="235.50" />
		<line x1="275.00" x2="452.96" y1="110.29" y2="52.47" />
		<line x1="275.00" x2="639.06" y1="110.29" y2="72.02" />
		<line x1="275.00" x2="801.11" y1="110.29" y2="165.58" />
		<line x1="275.00" x2="911.10" y1="110.29" y2="316.97" />
		<line x1="452.96" x2="950.00" y1="52.47" y2="500.00" />
		<line x1="452.96" x2="911.10" y1="52.47" y2="683.03" />
		<line x1="452.96" x2="801.11" y1="52.47" y2="834.42" />
		<line x1="452.96" x2="639.06" y1="52.47" y2="927.98" />
		<line x1="452.96" x2="452.96" y1="52.47" y2="947.53" />
		<line x1="452.96" x2="275.00" y1="52.47" y2="889.71" />
		<line x1="452.96" x2="135.94" y1="52.47" y2="764.50" />
		<line x1="452.96" x2="59.83" y1="52.47" y2="593.56" />
		<line x1="452.96" x2="59.83" y1="52.47" y2="406.44" />
		<line x1="452.96" x2="135.94" y1="52.47" y2="235.50" />
		<line x1="452.96" x2="275.00" y1="52.47" y2="110.29" />
		<line x1="452.96" x2="639.06" y1="52.47" y2="72.02" />
		<line x1="452.96" x2="801.11" y1="52.47" y2="165.58" />
		<line x1="452.96" x2="911.10" y1="52.47" y2="316.97" />
		<line x1="639.06" x2="950.00" y1="72.02" y2="500.00" />
		<line x1="639.06" x2="911.10" y1="72.02" y2="683.03" />
		<line x1="639.06" x2="801.11" y1="72.02" y2="834.42" />
		<line x1="639.06" x2="639.06" y1="72.02" y2="927.98" />
		<line x1="639.06" x2="452.96" y1="72.02" y2="947.53" />
		<line x1="639.06" x2="275.00" y1="72.02" y2="889.71" />
		<line x1="639.06" x2="135.94" y1="72.02" y2="764.50" />
		<line x1="639.06" x2="59.83" y1="72.02" y2="593.56" />
		<line x1="639.06" x2="59.83" y1="72.02" y2="406.44" />
		<line x1="639.06" x2="135.94" y1="72.02" y2="235.50" />
		<line x1="639.06" x2="275.00" y1="72.02" y2="110.29" />
		<line x1="639.06" x2="452.96" y1="72.02" y2="52.47" />
		<line x1="639.06" x2="801.11" y1="72.02" y2="165.58" />
		<line x1="639.06" x2="911.10" y1="72.02" y2="316.97" />
		<line x1="801.11" x2="950.00" y1="165.58" y2="500.00" />
		<line x1="801.11" x2="911.10" y1="165.58" y2="683.03" />
		<line x1="801.11" x2="801.11" y1="165.58" y2="834.42" />
		<line x1="801.11" x2="639.06" y1="165.58" y2="927.98" />
		<line x1="801.11" x2="452.96" y1="165.58" y2="947.53" />
		<line x1="801.11" x2="275.00" y1="165.58" y2="889.71" />
		<line x1="801.11" x2="135.94" y1="165.58" y2="764.50" />
		<line x1="801.11" x2="59.83" y1="165.58" y2="593.56" />
		<line x1="801.11" x2="59.83" y1="165.58" y2="406.44" />
		<line x1="801.11" x2="135.94" y1="165.58" y2="235.50" />
		<line x1="801.11" x2="275.00" y1="165.58" y2="110.29" />
		<line x1="801.11" x2="452.96" y1="165.58" y2="52.47" />
		<line x1="801.11" x2="639.06" y1="165.58" y2="72.02" />
		<line x1="801.11" x2="911.10" y1="165.58" y2="316.97" />
		<line x1="911.10" x2="950.00" y1="316.97" y2="500.00" />
		<line x1="911.10" x2="911.10" y1="316.97" y2="683.03" />
		<line x1="911.10" x2="801.11" y1="316.97" y2="834.42" />
		<line x1="911.10" x2="639.06" y1="316.97" y2="927.98" />
		<line x1="911.10" x2="452.96" y1="316.97" y2="947.53" />
		<line x1="911.10" x2="275.00" y1="316.97" y2="889.71" />
		<line x1="911.10" x2="135.94" y1="316.97" y2="764.50" />
		<line x1="911.10" x2="59.83" y1="316.97" y2="593.56" />
		<line x1="911.10" x2="59.83" y1="316.97" y2="406.44" />
		<line x1="911.10" x2="135.94" y1="316.97" y2="235.50" />
		<line x1="911.10" x2="275.00" y1="316.97" y2="110.29" />
		<line x1="911.10" x2="452.96" y1="316.97" y2="52.47" />
		<line x1="911.10" x2="639.06" y1="316.97" y2="72.02" />
		<line x1="911.10" x2="801.11" y1="316.97" y2="165.58" />
	</g>
</svg>
