<svg version="1.1" width="1000" height="1000" xmlns="http://www.w3.org/2000/svg">
	<g fill="none" stroke="red" stroke-width="1">
		<polygon points="585.57, 562.52 488.64, 605.36 403.07, 542.85 414.43, 437.48 511.36, 394.64 596.93, 457.15 " />
		<polygon points="604.57, 549.34 509.56, 615.23 404.99, 565.89 395.43, 450.66 490.44, 384.77 595.01, 434.11 " />
		<polygon points="622.22, 531.30 534.00, 621.49 411.79, 590.19 377.78, 468.70 466.00, 378.51 588.21, 409.81 " />
		<polygon points="637.40, 508.33 561.48, 623.16 424.08, 614.82 362.60, 491.67 438.52, 376.84 575.92, 385.18 " />
		<polygon points="648.93, 480.60 591.27, 619.28 442.34, 638.68 351.07, 519.40 408.73, 380.72 557.66, 361.32 " />
		<polygon points="655.57, 448.50 622.38, 608.98 466.81, 660.48 344.43, 551.50 377.62, 391.02 533.19, 339.52 " />
		<polygon points="656.06, 412.75 653.60, 591.53 497.53, 678.78 343.94, 587.25 346.40, 408.47 502.47, 321.22 " />
		<polygon points="649.22, 374.33 683.44, 566.40 534.22, 692.06 350.78, 625.67 316.56, 433.60 465.78, 307.94 " />
		<polygon points="633.97, 334.59 710.23, 533.31 576.27, 698.72 366.03, 665.41 289.77, 466.69 423.73, 301.28 " />
		<polygon points="609.43, 295.15 732.12, 492.34 622.69, 697.19 390.57, 704.85 267.88, 507.66 377.31, 302.81 " />
		<polygon points="575.01, 257.96 747.12, 443.94 672.11, 685.98 424.99, 742.04 252.88, 556.06 327.89, 314.02 " />
		<polygon points="530.46, 225.20 753.21, 388.98 722.76, 663.77 469.54, 774.80 246.79, 611.02 277.24, 336.23 " />
		<polygon points="475.97, 199.29 748.40, 328.83 772.44, 629.54 524.03, 800.71 251.60, 671.17 227.56, 370.46 " />
		<polygon points="412.25, 182.77 730.85, 265.39 818.61, 582.62 587.75, 817.23 269.15, 734.61 181.39, 417.38 " />
		<polygon points="340.57, 178.20 698.97, 201.03 858.40, 522.82 659.43, 821.80 301.03, 798.97 141.60, 477.18 " />
		<polygon points="262.82, 188.09 651.53, 138.65 888.71, 450.55 737.18, 811.91 348.47, 861.35 111.29, 549.45 " />
		<polygon points="181.57, 214.72 587.85, 81.59 906.28, 366.87 818.43, 785.28 412.15, 918.41 93.72, 633.13 " />
		<polygon points="100.00, 260.00 507.85, 33.59 907.85, 273.59 900.00, 740.00 492.15, 966.41 92.15, 726.41 " />
	</g>
</svg>
